<?xml version="1.0" encoding="utf-8"?>
<!-- Generator: Adobe Illustrator 26.0.1, SVG Export Plug-In . SVG Version: 6.00 Build 0)  -->
<svg version="1.1" xmlns="http://www.w3.org/2000/svg" xmlns:xlink="http://www.w3.org/1999/xlink" x="0px" y="0px" width="2000px"
	 height="1543.9px" viewBox="0 0 2000 1543.9" style="enable-background:new 0 0 2000 1543.9;" xml:space="preserve">
<style type="text/css">
	.st0{display:none;}
	.st1{display:inline;fill:url(#SVGID_1_);}
	.st2{opacity:9.000000e-02;}
	.st3{fill:#8A88F3;}
	.st4{opacity:6.000000e-02;}
	.st5{opacity:0.64;}
	.st6{fill:#F9B95A;}
	.st7{fill:#EFA630;}
	.st8{fill:#FFFFFF;}
	.st9{fill:#6C6CDD;}
	.st10{opacity:0.25;fill:#8A88F3;}
	.st11{opacity:0.48;}
	.st12{fill:#1B1B6D;}
	.st13{fill:#FAC4C4;}
	.st14{fill:#9A98E5;}
	.st15{fill:#8787D6;}
	.st16{opacity:8.000000e-02;}
	.st17{opacity:0.38;fill:#F9B95A;}
	.st18{opacity:0.48;fill:#1B1B6D;}
	.st19{fill:#F2B1B1;}
	.st20{fill:#F2BE3B;}
	.st21{fill:#EAB02F;}
	.st22{fill:#F4C74A;}
	.st23{opacity:0.58;fill:#FFFFFF;}
	.st24{opacity:0.43;}
	.st25{fill:#C2BDF5;}
	.st26{opacity:0.56;}
	.st27{fill:#183B99;}
	.st28{opacity:0.61;fill:#EF9C9C;}
	.st29{fill:#121254;}
	.st30{opacity:0.24;fill:#9A98E5;}
	.st31{fill:#8282D8;}
</style>
<g id="BACKGROUND" class="st0">
	<linearGradient id="SVGID_1_" gradientUnits="userSpaceOnUse" x1="1692.0833" y1="496.4334" x2="1443.9933" y2="1569.6918">
		<stop  offset="0" style="stop-color:#C2BDF5"/>
		<stop  offset="1" style="stop-color:#1B1B6D"/>
	</linearGradient>
	<rect x="1250" y="536.6" class="st1" width="750" height="500"/>
</g>
<g id="OBJECTS">
	<g>
		<g>
			<g class="st2">
				<path class="st3" d="M1602.5,416.6c-0.7-0.2-1.3-0.7-1.6-1.4c-0.6-1.2-0.3-2.4-0.1-3.1l1.7,0.8c0-0.1,0.1-0.1,0.1-0.2l-1.8-0.6
					c0.7-2,2.2-3,3.7-2.5l-0.6,1.9c0,0,0.1-0.1,0.1,0c-0.1,1.1,0.6,1.8-0.3,3.4c-0.4,0.1-0.5-0.1-0.7-0.2L1602.5,416.6z"/>
				<path class="st3" d="M1662,629.5l0.7-2.2c-0.1,0-0.1,0.1-0.2,0c0.3-1-0.6-1.4,0-2.6c0.4-0.1,0.5,0.1,0.7,0.2l0.7-2.3
					c1.8,0.6,2.6,2.5,2,4.5l-2.2-0.7l0,0l2.2,0.7c-0.2,0.7-0.6,1.3-1.1,1.7C1664,629.6,1663,629.8,1662,629.5z"/>
				<path class="st3" d="M1297.4,453.8l-1-2.8c0.6-0.9,0.9-1.7,1.1-2.4c0.4-1,0.7-2.1,1.8-2.6l2.8,1.7c0,0.3,0.1,0.7,0.2,1.2
					c0.3,1.1,0.7,2.6-0.3,4.8l-2.3,0.9L1297.4,453.8z"/>
				<path class="st3" d="M1179,708.7l-1.3-1c-0.4-0.9-0.8-3.9,0.4-5.5c0.7-0.9,1.8-1.3,2.9-1.1l1.5,1.9c0-0.3-0.2-0.6-0.2-0.6
					l1.5,2.2C1182.9,709,1179.9,708.8,1179,708.7z"/>
				<path class="st3" d="M1308.4,716.8l-0.8,0.7c-1.4,0.7-2.9,0.8-4.4,0.3c-2.1-0.7-3.7-2.6-4.2-4.9l0.8-2.2l2.6-2.1l2.3-0.3
					l0.9,0.3c4.1,1.3,4.4,4,4.3,5.6l-0.4,1L1308.4,716.8z"/>
				<path class="st3" d="M1274.9,618.7l-2.6,1.5c-0.7-0.3-1.9-0.8-2.3-2.1c-0.3-0.8-0.1-1.7,0.4-2.6l2.4-0.8
					c0.2,0.1,0.3,0.1,0.5,0.2c0.7,0.3,3,1.1,2.6,3.4l-1.1,0.7C1274.8,618.9,1274.9,618.7,1274.9,618.7z"/>
				<path class="st3" d="M1204.2,528.9c0,0,0.2,0.2,0.6,0.5l-2.5-2.1c0.3-1.4,0.9-2.4,1.9-2.9c0.6-0.4,1.7-0.7,3.2-0.2l0.5,0.2
					l1,2.4c-0.2,0.5-0.1,0.8,0.1,1.5l-2.5,2.2C1205.2,530,1204.6,529.4,1204.2,528.9z"/>
				<path class="st3" d="M1256.9,847.8l-1.8,1.7c-0.5,0-1,0.1-1.5,0.2c-0.7,0.2-1.4,0.3-2.1,0.3l-1.9-2.2c0.3-1.4,1.1-2.7,2.4-3.4
					c1-0.6,2-0.7,2.9-0.4C1255.4,844.2,1257.2,845,1256.9,847.8z"/>
				<path class="st3" d="M1239,770c-1.8-0.6-2.8-2.4-2.3-4.2l2-1.4c0.1,0,0.3,0,0.6-0.1c0.6-0.1,1.5-0.3,2.6,0.1
					c0.3,0.1,0.6,0.2,1,0.5l0.9,1.8c-0.1,1.3-0.7,2.3-1.7,2.9C1241.2,770.2,1240.1,770.3,1239,770z"/>
				<path class="st3" d="M1682.7,528.3c-0.7,0.5-1.8,1.3-3.4,1l-1.4-2.5c0.7-1.8,3.5-4,5.7-3.3c1.1,0.3,1.7,1.3,1.8,2.5l-2.2,1.9
					C1683.1,528,1682.8,528.2,1682.7,528.3z"/>
				<path class="st3" d="M1623.5,700.4l-0.2,0.2c0.6,1.8,1,4.3-0.7,6.8c-1.4,2-3.9,3-6.5,2.8l-2.6-1.2l-1.7-1.6l-1-1.5l-0.4-0.7
					c-1-1.7-2.7-4.7-1.5-8.4c0.8-2.2,2.5-3.9,4.9-4.9l4.6,0.8l1.9,1.7l0.5-0.3C1623.3,696.3,1623.6,698.8,1623.5,700.4z"/>
				<path class="st3" d="M1573.5,539.5l-0.8,0.5c-0.6,0.2-2.2,0.8-4,0.2c-0.9-0.3-3.7-1.5-3.5-5.8l0.9-1.7l3-2.1
					c0.5-0.2,1.9-0.7,3.7-0.1l0.8,0.3l1.2,1.2l0.9,2.2l0,1.5l-0.5,1.6l-0.5,0.8L1573.5,539.5z"/>
				<path class="st3" d="M1588.4,868.8l-1.6,0c-3.7-1.5-4.8-4-5.1-5.7l0.2-1.3l0.9-1.9l0.9-1c1.5-0.8,3.3-1,5-0.5
					c1.6,0.5,2.9,1.7,3.5,3.2c0.7,1.6,0.6,3.5-0.3,5.3l-1.2,1.1L1588.4,868.8z"/>
				<path class="st3" d="M1496.1,837.7c-0.6,0.3-1.5,0.6-2.7,0.5l-1.6-0.9l-1.9-2.6c-0.2-0.4-0.6-1.4-0.5-2.6l0.9-1.6l2.9-2.1
					c0.4-0.2,1.3-0.5,2.5-0.4l1.6,0.9l2,2.7c0.2,0.4,0.6,1.4,0.4,2.7l-0.9,1.5L1496.1,837.7z"/>
				<path class="st3" d="M1619.7,565.3c-0.4,0.2-1.3,0.5-2.5,0.4l-1.6-0.9l-2-2.9c-0.2-0.6-0.9-2.5,0.3-4.7l1.1-1l2.2-0.9l1.5-0.1
					l2.3,0.8l1.3,1.1l1.2,2.4l0.1,1.7l-0.5,1.6l-1,1.2L1619.7,565.3z"/>
				<path class="st3" d="M1750.3,606.5c-0.1,0.1-0.2,0.4-0.3,0.5c-0.5,0.8-1.3,2.2-3.1,2.2l-1.7-2.5c0.2-0.5,0.1-0.7-0.1-1.5
					l2.1-2.3c0.2,0,0.6-0.1,0.9-0.2c0.9-0.3,2-0.6,3-0.3c0.4,0.1,1.8,0.7,1.8,2.8l-3.2,1.4C1749.8,606.7,1750.2,606.6,1750.3,606.5z
					"/>
				<path class="st3" d="M1665.8,909c-2.1-0.7-3.2-2.5-2.6-4.5l2.5-1.5c0.5-0.3,1.2-0.7,2.3-0.6l1.9,2.5c0.3,0.5,0.7,1.3,0.7,2.3
					l-1,1.5C1668.5,909.3,1667.1,909.4,1665.8,909z"/>
				<path class="st3" d="M1728.8,696.7c0.5-1.9,2.4-2.9,4.2-2.4l1.4,2c0,0.1,0,0.3,0.1,0.6c0.1,0.8,0.4,2-0.5,3.6l-1.8,0.9
					C1729.6,701,1728.1,698.9,1728.8,696.7z"/>
				<path class="st3" d="M1661.1,735.5l0.4,2.2l-0.3,1.9c-1.1,3.4-3,4.9-5.7,4.7l-1.6-1l-0.5-0.7l-0.3,0.1c-3.2-1.6-3.3-4.1-3.1-5.4
					l0.3-0.8l1-1.5c1.5-2.3,3.7-3.2,6.1-2.5c1,0.3,1.9,0.9,3,1.9L1661.1,735.5z"/>
				<path class="st3" d="M1678.8,695.5l-1.8-0.8l-1.8-2.3l-0.4-1.9c0.4-1.6,1.1-4.5,3.6-5.9c1.4-0.8,3.1-0.9,4.7-0.4
					c0.3,0.1,0.7,0.2,1,0.4l1.1,1.3l0.8,2.5l-0.1,1.7C1685.4,691.4,1683.4,695.4,1678.8,695.5z"/>
				<path class="st3" d="M1760.6,784.5c-0.3-3-0.8-6.1-2-8.8l2.8-2.3c2,1.4,3.6,4.5,3.9,7.5c0.2,2-0.4,3.7-1.5,4.8L1760.6,784.5z"/>
				<path class="st3" d="M1680.2,820.9l-1.8-2c0-0.1,0-0.3-0.1-0.6c-0.1-0.8-0.4-2,0.5-3.6l2-0.9c0.4,0.1,0.8,0.2,1.1,0.3
					c2.3,0.7,3.4,2.4,3,4.5l-2.5,1.7C1682,820.5,1681.2,820.9,1680.2,820.9z"/>
				<path class="st3" d="M1444.9,583.2l0.1,0.2c-0.9,0.9-2.3,1.8-3.8,2.2l-1.2,1.5l-2.1,1.2l-0.7,0.3c-0.5,0.2-1.9,0.7-3.7,0.5
					l-3.1-1.9l-1.6-2.4l-0.6-1.2c-0.7-2.2-0.5-4.3,0.5-6.3l2.2-2l2.2-0.9l1,0l2-2.2l2.6-1.1l3.7,0.1c4.9,1.7,6,5.4,5.4,8.4l-2,2.9
					L1444.9,583.2z"/>
				<path class="st3" d="M1362.4,646c-1.6-0.5-2.9-1.6-3.4-3c-0.5-1.3-0.4-2.8,0.3-4.1l1.1-1l1.2-0.5l0.2,0.3l1.4-1l1.9-0.3l1.6,0.5
					l0.9,0.6l1.2,1.3l0.5,1c0.5,1.9,0,3.9-1.4,5.1C1366.7,646.2,1364.5,646.6,1362.4,646z"/>
				<path class="st3" d="M1396.2,733.2c-1.4-0.5-2.7-1.3-3.8-2.4l-1.2-2.1l-0.5-1.9l0.1-2.4l1.3-3.9l2.2-2.5l2.4-1.2l3.4-0.3
					l4.7,1.5l2.6,2.2l1.2,2.4l0.2,3.4C1406.7,731.8,1401.4,734.8,1396.2,733.2z"/>
				<path class="st3" d="M1436.9,624.1l-2,0.8l-3.6,0c-6.2-2-6.8-7.5-7.1-9.5l-0.1-0.8l0.5-2.8l1.2-2l2.2-1.9c2.1-0.9,4.3-1,6.4-0.3
					c2.6,0.9,4.7,2.9,5.7,5.6c1.1,2.9,0.7,6.3-1,9.2L1436.9,624.1z"/>
				<path class="st3" d="M1426.9,423.4l-2.1-2.4l1.5-4.7l3.2-0.6c1.1,1.2,1.9,1.8,2.9,2.5c1.1,0.7,2.2,1.5,3.3,3.1l-0.5,2.6
					c-1.7,1.3-3.6,1.1-5.7,0.2C1428.7,423.6,1427.9,423.2,1426.9,423.4z"/>
				<path class="st3" d="M1417,901.3l1.7,2.4l-5.6-0.2l2.2-1.9C1415.7,901.5,1416.2,901.2,1417,901.3z"/>
				<path class="st3" d="M1508.5,661.7l1.2,2.4l0.3,3.3l-0.5,1.6l-2,2.4l-2.7,1.5c-0.6,0.2-1.9,0.8-3.7,0.6l-3.1-1.8l-1.7-2.4
					l-0.6-1.2c-0.3-0.8-1.1-3.4,0.5-6.4l2.2-2l2.2-0.9l3-0.1l2.4,0.8L1508.5,661.7z"/>
				<path class="st3" d="M1533.9,619.9l-0.9,1.8l-1.7,1.8c-1.9,1.1-4.2,1.2-6.4,0.5c-2.7-0.9-5-3-6.1-5.6l-0.1-3.2l0.8-2.4l2.1-2.4
					c2.6-1.4,5-1.7,7.3-0.9c1.5,0.5,5.2,2.3,5.6,8.1L1533.9,619.9z"/>
				<path class="st3" d="M1543,500.8c-0.4-0.7-0.4-1.6-0.1-2.4l2.9-1c0.5-0.4,1.7-1.3,3.3-0.7c0.3,0.1,0.7,0.3,1,0.5l0.9,1.7
					c-0.1,1.4-0.7,2.5-1.8,3.2C1547.2,503.3,1544,502.7,1543,500.8z"/>
				<path class="st3" d="M1502.5,512.8c-1.9-0.6-3.3-2-3.7-3.8c-0.4-1.7,0.1-3.5,1.5-5l1.1-0.6l1.9-0.5l1.2,0.1l2.3,0.8l1,0.7
					l1.3,1.5l0.5,1.1c0.3,1.9-0.4,3.7-1.7,4.9C1506.3,513.1,1504.4,513.5,1502.5,512.8z"/>
				<path class="st3" d="M1291.2,553.7c-0.3-0.1-0.6-0.2-0.9-0.3c-0.4-0.1-1.8-0.6-2.2-1.9c-0.3-0.9-0.1-1.9,0.7-2.9l0.6-0.5
					c1.2-0.6,2.1-0.5,2.7-0.3c2.1,0.7,2.5,3.2,2.6,4.3l-2.8,1.9C1291.6,553.8,1291.4,553.7,1291.2,553.7z"/>
				<path class="st3" d="M1577.3,650.9l-2,0l-2.3-0.6c-3.5-2.1-4.7-5.2-5.5-7.5l-0.2-2.6l0.5-2l1.2-2.2c2.3-2.2,5.4-3,8.4-2
					c3.3,1.1,5.7,4.1,6.2,7.7c0.4,3.4-1.1,6.7-3.9,8.5L1577.3,650.9z"/>
				<path class="st3" d="M1413.5,819.6l-0.4,0.6l-2.1,1.4l-1.6,0.3c-0.4-0.1-0.8-0.2-1.1-0.3c-1.6-0.5-2.8-1.5-3.5-3
					c-1.2-2.6-0.1-5.4,0.5-6.9l1.1-1.2l2.2-1.1l1.6-0.1l0.5,0.1c2.1,0.7,3.7,1.9,4.7,3.4l0.3,0.8l0.2,1.3l0,0.8
					C1415.4,818,1414.3,819,1413.5,819.6L1413.5,819.6z"/>
				<path class="st3" d="M1497.3,703.4c0.7-0.4,2.4-1.3,4.7-1.2l3.4,1.9l1.7,2.4l0.6,3.8l-0.8,2.3l-2.4,2.7l-2.6,1.1l-3.8-0.1
					c-5.9-2.2-5.7-6.8-5.4-8.2l1.8-2.9L1497.3,703.4z"/>
				<path class="st3" d="M1857.8,705.1c-0.8,0.4-1.7,0.5-2.4,0.3l0.7-2c-0.2-0.1-0.5,0-0.6-0.3c-0.4-0.9,1.2-2.1,1.5-2.1
					c0.5,0,0.5,0.2,0.7,0.3l0.7-2c1.4,0.5,2.1,1.8,1.6,3.3C1859.8,703.6,1858.9,704.6,1857.8,705.1z"/>
				<path class="st3" d="M1594.6,769l-2,2.1l-2.1,1.1l-2.9,0.4c-0.7-0.2-1.4-0.3-2-0.5c-5.8-1.9-7.8-6.4-7.7-9.9l0.8-2.4l1.2-1.7
					l1.9-1.5c2.1-0.9,4.6-1,6.9-0.2c2.7,0.9,4.9,2.8,6,5.3C1595.6,764,1595.6,766.6,1594.6,769z"/>
				<path class="st3" d="M1385.8,530.2c-0.4,0.2-1.4,0.6-2.8,0.5l-1.6-0.9l-1.9-2.7c-0.3-0.6-0.6-1.5-0.4-2.7l0.9-1.5l2.6-1.9
					c0.4-0.2,1.3-0.6,2.6-0.5l1.6,0.9l2,2.7c0.2,0.4,0.6,1.4,0.4,2.7l-0.9,1.5L1385.8,530.2z"/>
				<path class="st3" d="M1525.8,936.1l1.1,0.9c0.8,1.5,0.6,3.8-0.5,5.2c-0.9,1.1-2.3,1.6-3.7,1.2l-1.1-0.9
					c-0.8-1.5-0.6-3.8,0.5-5.2C1523,936.2,1524.4,935.7,1525.8,936.1z"/>
				<path class="st3" d="M1299.5,793.9l-1.3-1.2c-0.6-1.7-0.4-3.6,0.6-5.6l2-1l0.5,0.1c2.3,0.7,3,3.2,2.5,5.1
					C1303.2,793.3,1301.4,794.4,1299.5,793.9z"/>
			</g>
			<g class="st4">
				<path class="st3" d="M43.5,1523.6c114-92.3,163.7-242.8,193.7-387.5c18.8-90.8,32.8-184.5,75.2-266.8
					c48.6-94.3,140.5-170.6,245.3-177.1s214.5,72.5,223.2,178.5c10.3-77.4,20.9-156.1,52.9-227.1c20.1-44.6,48.1-85,77.8-123.7
					c36.6-47.7,76.5-93.4,124.1-129.8c155.9-119.1,392-114.9,543.7,9.7c48.1,39.5,88.2,90.1,110.7,148.6
					c29.3,76.1,27.5,161.6,9.3,241.3s-51.7,154.6-85.1,229c133.6-50.2,299.8,18.8,360.1,149.6c60.3,130.8,5.9,304.1-118,375.6"/>
			</g>
			<g>
				<g class="st5">
					<g>
						<path class="st6" d="M1206.7,978.5c-45.9-36-91.9-71.9-139.7-105.4c-47.3-33.3-96.3-64.3-148.1-90.1
							c-29.1-14.5-59-27.3-89.7-38c-2.6-0.9-1.2-5,1.5-4.1c54.9,19.1,107.1,45.1,156.9,75c49.9,30,97.5,63.9,143.9,99
							c26.1,19.7,51.9,39.9,77.7,60.1C1211.4,976.6,1208.9,980.2,1206.7,978.5L1206.7,978.5z"/>
					</g>
					<g>
						<path class="st6" d="M1042.8,855.2C1017.7,796,982.9,741,940.3,692.7c-12-13.6-24.7-26.6-37.9-39.1c-2-1.9,1.3-4.7,3.3-2.8
							c47.1,44.4,86.9,96.4,117.5,153.5c8.6,16,16.4,32.4,23.5,49.1C1047.8,855.9,1043.9,857.8,1042.8,855.2L1042.8,855.2z"/>
					</g>
					<path class="st6" d="M832.9,746.4c-4.2-26.6-31.2-53.3-56.8-61.8c-25.6-8.5-53.8-5.5-79.5,2.6c-1.5,0.5-3,1-3.9,2.3
						c-1.5,2.2-0.1,5.2,1.3,7.5c14.6,22.8,35.2,42.4,60.3,52.7S809.3,759.9,832.9,746.4"/>
					<path class="st6" d="M904.7,654.6c6.6-19.9-0.9-42-13.2-59c-16.5-22.8-41.5-39.3-69-45.3c0,25.1,6.2,50.6,20.7,71.1
						S879.7,653.3,904.7,654.6"/>
					<g>
						<path class="st6" d="M985.7,746.7c4.7-25,2.2-51-7.2-74.7c-1-2.6,2.9-4.4,3.9-1.8c9.7,24.4,12.4,51.2,7.6,76.9
							C989.5,749.8,985.2,749.4,985.7,746.7L985.7,746.7z"/>
					</g>
					<path class="st6" d="M981.2,673.5c4.2-4,8.2-8.5,10.6-13.8c2.8-6.2,3.3-13.3,2.9-20.1c-1.5-25.4-15.5-49.7-36.8-63.7
						c-6.3,9.1-10,20-10.7,31c-0.4,6.3,0.2,12.7,1.8,18.8C954.1,644.8,967.5,659.4,981.2,673.5"/>
					<g>
						<path class="st6" d="M992,823.6c-13.3,6.2-27.9,12.4-42.8,8.5c-2.7-0.7-1.2-4.8,1.5-4.1c13.6,3.6,27.4-2.7,39.5-8.3
							C992.7,818.5,994.6,822.4,992,823.6L992,823.6z"/>
					</g>
					<path class="st6" d="M952.1,829.1c-12-11.9-25.2-24.3-41.9-26.7c-7.6-1.1-15.3,0.1-22.7,1.8c-13.2,3-25.9,7.6-37.9,13.8
						c-0.7,0.4-1.5,0.8-1.7,1.6c-0.1,0.6,0.1,1.2,0.4,1.8c7.6,15.6,26,22.5,43,26c11,2.2,22.3,3.6,33.3,1.5
						C935.5,846.7,946.6,838.9,952.1,829.1"/>
					<path class="st6" d="M1001,774c-3.6-9.4-10.9-16.8-18.6-23.3c-12.7-10.7-27.3-19.8-43.5-23.5c-16.2-3.7-34.3-1.4-47.5,8.7
						c3.8,7.5,10,13.5,16.3,19.1c8.2,7.1,17,13.8,27.1,17.6C955.7,780.6,979.2,779,1001,774"/>
				</g>
				<g class="st5">
					<g>
						<path class="st6" d="M1362.6,1055c78.7-21.3,168.4-48.1,222.6-109c6.7-7.5,13-15.9,14.7-25.8c1.7-9.9-2.7-21.5-12.1-24.9
							c-6.9-2.5-14.6-0.3-21.5,2c-15.8,5.2-31.5,10.8-47.1,16.7c-6-3.1-1.5-12.2,3.5-16.6c50-44.4,117.7-70.2,154.3-126.2
							c7.8-11.9,14-25.6,13.3-39.8c-0.8-14.2-10.4-28.6-24.4-31c-19.7-3.4-36.1,16.5-55.9,19c-3.8-6.2-0.2-14.2,3.6-20.3
							c23.1-36.8,56.1-68.4,68.9-110c6.8-21.9,7.4-45.7,1.7-67.9c-2.6-10.1-6.8-20.4-14.8-27.1c-5.4-4.5-12.3-7.1-19.3-8.5
							c-23.1-4.5-47.5,4.2-65.7,19.2c-18.2,15-30.9,35.6-40.6,57.1c-6.8,15.1-12.5,31-23.4,43.4c-12.3-7.1-14.3-23.7-15.4-37.8
							s-4.5-30.9-17.6-36.4c-10.4-4.4-22.6,0.7-31.2,8.1c-10.8,9.3-18.3,21.9-24.4,34.7c-19.3,40.4-27.1,85.7-26.7,130.5
							c0.1,8.9,0.4,18.2-3.7,26.2c-4,7.9-14.2,13.6-22.1,9.5c-4.3-2.3-6.9-6.8-9.4-11c-5.2-8.8-11.1-17.5-19.6-23.2
							c-8.5-5.7-20.1-7.6-28.9-2.4c-6.2,3.7-10.1,10.3-13.4,16.8c-20.5,41-25.9,88.5-20.5,134.1c5.3,45.6,20.8,89.4,40,131.1
							C1338.1,1008.4,1345.9,1036,1362.6,1055"/>
					</g>
					<g>
						<path class="st7" d="M1365.3,1046.5c15.9-10.6,32.4-24,48.3-34.6c17.5-11.7,35.3-23.6,48.6-39.9c8.1-9.8,14.5-21.8,14.1-34.5
							c-0.2-5-1.4-9.9-1.8-14.9c-1.3-18.1,9.3-35.1,22.5-47.6c13.2-12.4,29.1-21.6,43.1-33.2c13.2-11,24.5-24.2,33.4-38.9
							c4.3-7.2,8.1-15,8.4-23.3c0.2-7.5-2.3-14.7-3.6-22c-3.6-21.3,4.4-42.9,14.2-62.2c9.8-19.3,21.8-37.8,27.2-58.8
							c1.6-6.2,2.6-12.8,0.7-19c-5.3-17.6-31-20.6-46.3-10.4c-15.3,10.2-23.2,28-32.3,44c-8.9,15.8-19.7,30.5-32,43.8
							c-3.5,3.8-7.4,7.6-12.5,8.5c-9.8,1.7-18-8.2-27.8-9.1c-12.7-1.2-21.5,12.1-26.5,23.8c-9.3,21.7-16.1,44.5-20.3,67.8
							c-3.4,19-7.7,41.8-25.7,48.7c-8.8,3.4-19.3,1.8-27.5,6.7c-11.9,7.1-12.9,23.6-12.5,37.4
							C1358.4,933.8,1363.8,991.4,1365.3,1046.5"/>
					</g>
					<g>
						<g>
							<path class="st8" d="M1666,495c-23.3,34.2-45.5,69.1-66.9,104.4c-21.5,35.5-42.2,71.5-62.4,107.8
								c-20,36-39.5,72.4-58.6,108.9c-19.3,36.6-38.2,73.4-57.2,110.2c-18.9,36.6-37.6,73.3-49.4,112.9c-1.5,5-2.8,9.9-4.1,15
								c-0.7,2.7-5,2.1-4.3-0.6c5-19.7,11.5-39,19.3-57.8c8-19.1,17.3-37.7,26.7-56.2c19-37.1,38.2-74.2,57.6-111.1
								c19.3-36.8,38.8-73.5,58.8-109.9c20-36.4,40.6-72.5,61.9-108.1c21.3-35.6,43.4-70.8,66.5-105.3c2.8-4.2,5.7-8.5,8.6-12.7
								C1664.1,490.1,1667.6,492.7,1666,495L1666,495z"/>
						</g>
						<g>
							<path class="st8" d="M1676.4,738.1c-48.3,29.1-100.1,52.4-154.1,69.1c-15.3,4.7-30.8,8.9-46.4,12.6c-2.7,0.6-3.2-3.7-0.5-4.3
								c54.2-12.8,106.8-32.1,156.4-57.5c14.2-7.3,28.2-15,41.9-23.3C1676.1,733.3,1678.8,736.7,1676.4,738.1L1676.4,738.1z"/>
						</g>
						<g>
							<path class="st8" d="M1678.9,570.4c-26.9,19.7-56.9,34.8-88.8,44.4c-2.6,0.8-4.3-3.2-1.7-4c31.5-9.5,61.2-24.4,87.8-43.8
								C1678.5,565.3,1681.1,568.7,1678.9,570.4L1678.9,570.4z"/>
						</g>
						<g>
							<path class="st8" d="M1659.4,629.5c-26.8,9.3-55.3,12.8-83.6,10.4c-2.8-0.2-2.2-4.5,0.6-4.3c27.5,2.3,55.3-1.1,81.4-10.1
								C1660.3,624.6,1662,628.6,1659.4,629.5L1659.4,629.5z"/>
						</g>
						<g>
							<path class="st8" d="M1645.8,803c-42.5,21.8-90,33.1-137.8,33c-13.6,0-27.1-0.9-40.6-2.6c-2.8-0.4-2.2-4.6,0.6-4.3
								c46.8,6.1,95,1.4,139.5-14.3c12.5-4.4,24.7-9.7,36.6-15.8C1646.6,797.7,1648.3,801.7,1645.8,803L1645.8,803z"/>
						</g>
						<g>
							<path class="st8" d="M1517,733.1c-13.3-50.7-26.7-101.7-32.9-153.9c-1.8-14.8-2.9-29.6-3.4-44.4c-0.1-2.8,4.2-3.3,4.3-0.5
								c1.6,52.5,12.3,104.2,25,155c3.6,14.5,7.4,28.9,11.2,43.3C1522,735.2,1517.7,735.8,1517,733.1L1517,733.1z"/>
						</g>
						<g>
							<path class="st8" d="M1507.8,750.6c-8.1-5.9-13.6-14.3-19-22.6c-6.2-9.6-12.5-19.3-18.5-29.1c-11.9-19.3-23.1-39.2-31.9-60.2
								c-4.9-11.8-9-24-12.1-36.4c-0.7-2.7,3.6-3.2,4.3-0.5c10.7,43.5,34.7,81.9,58.7,119.1c6.1,9.4,11.8,19.6,21.1,26.3
								C1512.7,748.7,1510.1,752.2,1507.8,750.6L1507.8,750.6z"/>
						</g>
						<g>
							<path class="st8" d="M1593.9,927.3c-47.2,24.1-98.9,39.5-151.6,45.2c-14.9,1.6-29.9,2.4-44.9,2.5c-2.7,0-3.3-4.3-0.5-4.3
								c52.7-0.2,105.3-10,154.5-29.1c13.9-5.4,27.6-11.5,40.9-18.3C1594.7,922,1596.3,926,1593.9,927.3L1593.9,927.3z"/>
						</g>
						<g>
							<path class="st8" d="M1511.8,999.7c-31.7,8.4-64.9,10.4-97.4,5.9c-9.3-1.3-18.6-3.1-27.7-5.5c-2.7-0.7-2.1-5,0.6-4.3
								c31.5,8.1,64.5,9.9,96.8,5.2c9.2-1.4,18.2-3.2,27.2-5.6C1514,994.7,1514.5,999,1511.8,999.7L1511.8,999.7z"/>
						</g>
						<g>
							<path class="st8" d="M1420.3,919.3c-41.3-43.3-73.1-95.5-92.7-152c-5.5-15.9-10-32-13.6-48.4c-0.6-2.7,3.7-3.3,4.3-0.5
								c12.5,57.7,37.6,112.6,72.9,160c10,13.4,20.9,26.2,32.4,38.3C1425.6,918.6,1422.2,921.3,1420.3,919.3L1420.3,919.3z"/>
						</g>
					</g>
				</g>
				<g class="st5">
					<g>
						<path class="st6" d="M1493.2,1435.7c35.2,32.1,76.6,67.9,123.7,75.6c5.8,0.9,11.9,1.4,17.3-0.8c5.4-2.3,9.7-8.1,8.5-13.8
							c-0.9-4.2-4.4-7.3-7.8-10c-7.5-6.2-15.2-12.1-23-18c-0.3-3.9,5.5-4.6,9.3-3.5c37.6,10.7,71.6,36,110.6,36.5
							c8.3,0.1,17-1.1,23.8-5.9c6.8-4.8,10.9-14.1,7.7-21.8c-4.5-10.8-19.5-12.6-26.9-21.6c1.8-3.8,6.9-4.6,11.2-4.6
							c25.4-0.2,51.4,6.2,75.9-0.5c12.9-3.5,24.9-10.7,34-20.5c4.2-4.5,7.9-9.7,8.7-15.8c0.5-4.1-0.4-8.3-1.9-12.2
							c-5-12.8-17-22.1-30.1-26.4c-13.1-4.3-27.3-4.1-40.9-2.1c-9.6,1.4-19.2,3.6-28.8,2.1c-0.3-8.3,7.2-14.5,13.8-19.5
							c6.6-5,13.8-11.9,12.4-20.1c-1.1-6.5-7.5-10.9-13.8-12.8c-8-2.4-16.5-2.2-24.8-1.1c-26,3.2-50.8,13.5-72.7,27.8
							c-4.4,2.8-8.9,5.9-14.1,6.4c-5.2,0.5-11.1-2.7-11.6-7.9c-0.2-2.8,1.2-5.5,2.5-8.1c2.7-5.3,5.1-11,5.3-16.9
							c0.1-6-2.6-12.3-7.9-15c-3.8-1.9-8.2-1.8-12.5-1.3c-26.7,2.7-51.8,15-72.6,32c-20.8,16.9-37.6,38.3-52.1,60.9
							C1508.5,1409,1497.3,1421.5,1493.2,1435.7"/>
					</g>
					<g>
						<path class="st7" d="M1498.2,1434.3c10.2,4.5,22,8.4,32.2,13c11.3,5,22.7,10,34.9,11.5c7.4,0.9,15.3,0.3,21.4-3.9
							c2.4-1.7,4.4-3.8,6.8-5.6c8.5-6.3,20.3-6.4,30.5-3.8s19.8,7.6,29.9,10.8c9.6,3,19.6,4.5,29.7,4.2c4.9-0.1,9.9-0.7,14.1-3.2
							c3.8-2.2,6.5-5.8,9.7-8.7c9.4-8.5,22.5-11.3,35.1-12.5c12.6-1.2,25.5-1.1,37.5-5.1c3.6-1.2,7.1-2.8,9.6-5.6
							c7-8.1,0.4-21.7-9.4-26.1c-9.8-4.3-21.1-2.6-31.8-2.1c-10.6,0.5-21.2-0.2-31.6-2.1c-3-0.5-6.1-1.3-8.1-3.5
							c-3.9-4.3-1.6-11.4-4.3-16.6c-3.4-6.6-12.7-6.8-20.1-5.6c-13.6,2.2-27,6-39.8,11.3c-10.4,4.3-23.1,9.3-32.1,2.6
							c-4.4-3.3-7-9-11.9-11.4c-7.2-3.6-15.7,1-22.4,5.6C1551.6,1395.6,1524.9,1416.3,1498.2,1434.3"/>
					</g>
					<g>
						<g>
							<path class="st8" d="M1864.6,1409.5c-24.2-0.7-48.3-0.8-72.5-0.2c-24.3,0.5-48.5,1.6-72.7,3.1c-24.1,1.4-48.1,3.3-72.1,5.3
								c-24.1,2-48.2,4.2-72.3,6.4c-24,2.2-48,4.5-71.2,11.1c-2.9,0.8-5.8,1.7-8.7,2.7c-1.5,0.5-2.6-1.8-1.1-2.3
								c11.3-3.7,22.9-6.6,34.6-8.6c12-2.1,24-3.3,36.1-4.5c24.3-2.3,48.6-4.4,72.9-6.5c24.2-2.1,48.4-3.9,72.7-5.5
								c24.2-1.5,48.5-2.7,72.8-3.4c24.3-0.7,48.5-0.8,72.8-0.2c3,0.1,6,0.2,9,0.2C1866.4,1407.1,1866.2,1409.6,1864.6,1409.5
								L1864.6,1409.5z"/>
						</g>
						<g>
							<path class="st8" d="M1747.9,1491c-29.5-14.7-57.3-32.9-82.4-54.3c-7.1-6.1-14.1-12.4-20.8-18.9c-1.2-1.1,0.8-2.7,1.9-1.6
								c23.3,22.7,49.4,42.6,77.5,59.1c8.1,4.7,16.3,9.2,24.6,13.3C1750.2,1489.3,1749.4,1491.7,1747.9,1491L1747.9,1491z"/>
						</g>
						<g>
							<path class="st8" d="M1831.4,1439.5c-18.1-7.1-35-17.1-49.8-29.8c-1.2-1.1,0.2-3.1,1.4-2.1c14.6,12.6,31.2,22.5,49.2,29.5
								C1833.8,1437.7,1833,1440.1,1831.4,1439.5L1831.4,1439.5z"/>
						</g>
						<g>
							<path class="st8" d="M1796.2,1448.5c-13-10.3-23.7-23.3-31.4-38c-0.8-1.4,1.5-2.5,2.3-1.1c7.5,14.3,17.9,26.9,30.5,36.9
								C1798.9,1447.4,1797.5,1449.5,1796.2,1448.5L1796.2,1448.5z"/>
						</g>
						<g>
							<path class="st8" d="M1706.3,1496.3c-24.1-14.1-44.6-34-59.5-57.6c-4.3-6.7-8.1-13.7-11.5-20.8c-0.7-1.5,1.6-2.5,2.3-1.1
								c11.7,25,29.1,47.3,50.9,64.3c6.1,4.8,12.6,9.2,19.3,13.1C1709.2,1495,1707.7,1497.1,1706.3,1496.3L1706.3,1496.3z"/>
						</g>
						<g>
							<path class="st8" d="M1700.4,1410.8c20.8-22.5,41.8-45.1,65.6-64.5c6.7-5.5,13.7-10.7,20.9-15.6c1.3-0.9,3,1,1.6,1.9
								c-25.4,17.3-47.5,38.8-68.6,61c-6,6.3-11.9,12.7-17.9,19.1C1700.9,1413.9,1699.3,1412,1700.4,1410.8L1700.4,1410.8z"/>
						</g>
						<g>
							<path class="st8" d="M1688.9,1411.8c0.3-5.9,2.8-11.2,5.2-16.5c2.8-6.1,5.6-12.2,8.5-18.3c5.8-11.9,12.1-23.7,19.7-34.6
								c4.3-6.1,9-12,14.2-17.4c1.1-1.2,2.7,0.8,1.6,1.9c-18.1,18.9-29.5,42.8-40.3,66.4c-2.7,5.9-6,12-6.3,18.6
								C1691.3,1413.6,1688.8,1413.4,1688.9,1411.8L1688.9,1411.8z"/>
						</g>
						<g>
							<path class="st8" d="M1628.7,1509.7c-26.7-15.7-50.5-36.4-69.9-60.6c-5.5-6.9-10.6-14-15.3-21.4c-0.9-1.3,1.1-3,1.9-1.6
								c16.7,25.9,38,48.8,62.8,67.1c7,5.2,14.3,10,21.9,14.4C1631.6,1508.4,1630.1,1510.5,1628.7,1509.7L1628.7,1509.7z"/>
						</g>
						<g>
							<path class="st8" d="M1567.3,1491.9c-14.1-13-25.5-28.8-33.5-46.2c-2.3-5-4.3-10.1-6-15.4c-0.5-1.5,1.8-2.6,2.3-1.1
								c5.9,18.1,15.4,34.9,27.8,49.3c3.5,4.1,7.3,8,11.3,11.6C1570.4,1491.4,1568.5,1493,1567.3,1491.9L1567.3,1491.9z"/>
						</g>
						<g>
							<path class="st8" d="M1578.2,1421.5c8.4-34,24.1-66,45.9-93.4c6.1-7.7,12.7-15,19.6-21.9c1.2-1.1,2.8,0.8,1.6,1.9
								c-24.5,24.3-43.7,53.9-56,86.2c-3.5,9.2-6.4,18.5-8.7,28C1580.2,1424,1577.8,1423.1,1578.2,1421.5L1578.2,1421.5z"/>
						</g>
					</g>
				</g>
				<g class="st5">
					<g>
						<path class="st3" d="M1312.3,1228.5c103.9-16.8,213.1-46.4,305.7-96.6c92.5-50.2,175.1-120.3,233.5-207.9
							c14-20.9,26.8-43.5,29.9-68.5s-5.5-52.8-26.7-66.3c-26.7-17.1-62.1-6.5-90.8,7c-84.1,39.8-155.7,101.3-225,163.4
							c-87.6,78.5-178.5,160.4-229.8,266.2"/>
					</g>
					<g>
						<path class="st9" d="M1313.7,1227.5c28.3-15.7,62.3-26.8,91.9-39.7c60.1-26.2,122.7-46.5,181.5-75.4
							c70.3-34.5,134.7-81.1,189.5-137c37.7-38.4,71.9-83.5,82-136.3c1.3-6.9,2.1-14.6-1.6-20.6c-4.1-6.5-12.6-9.1-20.2-8.2
							c-7.6,0.9-14.6,4.6-21.3,8.2c-114.4,62.3-221.1,138.7-317,226.8c-10.6,9.7-21,19.6-31.4,29.4c-44.7,42.2-89.3,84.3-134,126.5
							c-7.5,7.1-15.2,14.4-19.5,23.8"/>
					</g>
					<g>
						<g>
							<path class="st8" d="M1871.7,814.9c-31.7,30.5-64.2,60.2-97.5,89c-33.3,28.7-67.4,56.6-102.3,83.4
								c-35,27-70.7,52.9-107.2,77.9c-38.4,26.3-77.8,51.3-117,76.5c-40.2,25.8-80.5,51.6-120.7,77.4c-4.9,3.2-9.9,6.3-14.8,9.5
								c-2.3,1.5-4.8-2.1-2.4-3.6c40.1-25.7,80.1-51.4,120.2-77.1c39.6-25.4,79.4-50.5,118.4-76.8c36.3-24.5,72-50,106.9-76.5
								c35.1-26.6,69.4-54.1,102.9-82.6c33.7-28.6,66.5-58.2,98.5-88.6c3.9-3.7,7.9-7.5,11.8-11.3
								C1870.4,810.1,1873.7,813,1871.7,814.9L1871.7,814.9z"/>
						</g>
						<g>
							<path class="st8" d="M1594.7,1044c37.4,2,75.1-1.4,111.5-10.4c10.3-2.5,20.5-5.5,30.6-8.9c2.6-0.9,4.1,3.2,1.4,4.1
								c-35.7,12-73.2,18.7-110.9,19.9c-10.8,0.3-21.6,0.2-32.4-0.4C1592.2,1048.2,1591.9,1043.9,1594.7,1044L1594.7,1044z"/>
						</g>
						<g>
							<path class="st8" d="M1677.7,976.6c6.2-33.5,17.8-65.9,34.1-95.8c4.6-8.4,9.6-16.6,14.9-24.6c1.5-2.3,4.8,0.5,3.3,2.8
								c-18.5,27.9-32.7,58.7-41.6,90.9c-2.5,9.1-4.6,18.2-6.4,27.5C1681.4,980.2,1677.2,979.4,1677.7,976.6L1677.7,976.6z"/>
						</g>
						<g>
							<path class="st8" d="M1769.4,902.4c27.8-2.5,54.7-12,77.9-27.4c2.3-1.5,4.8,2,2.4,3.6c-23.9,15.8-51.5,25.6-80.1,28.1
								C1766.9,907,1766.6,902.6,1769.4,902.4L1769.4,902.4z"/>
						</g>
						<g>
							<path class="st8" d="M1484.5,1114.2c-0.1-16.1,3.9-31.8,9.7-46.7c5.8-15,13-29.7,20.6-43.8c4.3-7.9,9.1-15.4,15.4-21.9
								c1.9-2,5.2,0.8,3.3,2.8c-7,7.2-12.1,15.8-16.7,24.7c-4.5,8.7-8.8,17.5-12.9,26.4c-8.3,18.3-15.3,37.8-15.1,58.2
								C1488.9,1116.6,1484.5,1116.9,1484.5,1114.2L1484.5,1114.2z"/>
						</g>
						<g>
							<path class="st8" d="M1406.2,1163.7c36.8,0.9,73.6-4.6,108.6-16.1c2.6-0.9,4.1,3.2,1.4,4.1c-35.3,11.7-72.6,17.2-109.8,16.4
								C1403.7,1168,1403.4,1163.7,1406.2,1163.7L1406.2,1163.7z"/>
						</g>
					</g>
				</g>
				<g class="st5">
					<g>
						<path class="st6" d="M1402.9,1328.9c54.2-21.7,108.3-43.5,161.3-67.9c52.5-24.2,104-51.1,152.3-82.9
							c27.1-17.9,53.3-37.3,77.9-58.5c2.1-1.8,4.9,1.5,2.8,3.3c-44,37.9-92.7,70.1-143.6,98.1c-51,28.1-104.2,52.2-157.9,74.8
							c-30.2,12.7-60.6,24.9-91,37.1C1402.2,1333.8,1400.4,1329.9,1402.9,1328.9L1402.9,1328.9z"/>
					</g>
					<g>
						<path class="st6" d="M1591.8,1249c63.9,8,128.9,5.5,192-7.2c17.8-3.6,35.4-8,52.8-13.2c2.7-0.8,3.4,3.5,0.8,4.3
							c-62,18.5-127,26.8-191.7,24.7c-18.1-0.6-36.2-2-54.3-4.3C1588.7,1252.9,1589,1248.6,1591.8,1249L1591.8,1249z"/>
					</g>
					<path class="st6" d="M1791.3,1122c25.2,9.7,61.7-0.2,81.9-18.1c20.2-17.9,31.8-43.8,37.7-70.1c0.3-1.5,0.6-3.1,0-4.5
						c-1.2-2.4-4.5-2.7-7.2-2.6c-27.1,1.2-54.4,9.1-75.8,25.8C1806.4,1069,1791.4,1094.8,1791.3,1122"/>
					<path class="st6" d="M1834.6,1230.2c13.8,15.7,36.8,20.3,57.6,18.2c28-2.8,54.8-16.2,73.8-36.9c-21.7-12.6-46.9-20.1-71.9-17.8
						C1869.1,1195.8,1848.3,1209.2,1834.6,1230.2"/>
					<g>
						<path class="st6" d="M1714.3,1254c19.3,16.6,43,27.5,68.2,31.3c2.7,0.4,2.4,4.7-0.4,4.3c-25.9-3.9-50.5-15-70.4-32
							C1709.8,1255.7,1712.2,1252.2,1714.3,1254L1714.3,1254z"/>
					</g>
					<path class="st6" d="M1779.9,1286.9c1.4,5.7,3.2,11.3,6.6,16c4,5.6,9.8,9.6,15.9,12.6c22.7,11.4,50.8,11.5,73.5,0.1
						c-4.7-10-12.2-18.7-21.4-24.8c-5.3-3.5-11.1-6.2-17.2-7.9C1818.4,1277.8,1799,1282.1,1779.9,1286.9"/>
					<g>
						<path class="st6" d="M1644.6,1220.9c1.3-14.6,3.3-30.4,14.2-41.3c2-2,4.7,1.3,2.8,3.3c-10,9.9-11.4,25-12.6,38.3
							C1648.7,1224.1,1644.4,1223.7,1644.6,1220.9L1644.6,1220.9z"/>
					</g>
					<path class="st6" d="M1659.9,1183.6c16.3-4.4,33.7-9.6,44.1-22.8c4.7-6,7.6-13.3,9.9-20.5c4-12.9,6.4-26.3,7.1-39.7
						c0-0.8,0-1.7-0.5-2.2c-0.4-0.4-1.1-0.5-1.7-0.5c-17.3-1.3-32.5,11.2-44.1,24.2c-7.4,8.4-14.3,17.5-18,28
						C1653,1160.4,1654.2,1174,1659.9,1183.6"/>
					<path class="st6" d="M1683.1,1253.6c9.9,1.6,20-1,29.5-4.4c15.6-5.6,30.8-13.6,42.1-25.8c11.3-12.2,18.4-29,16.3-45.5
						c-8.4-0.5-16.7,1.8-24.7,4.5c-10.3,3.5-20.5,7.8-28.9,14.6C1700.1,1211.1,1689.6,1232.2,1683.1,1253.6"/>
				</g>
				<g class="st5">
					<g>
						<path class="st3" d="M1111.6,1137.7c-48-93.6-110-188.4-186.3-260.9S756.8,747.5,655.5,718.9c-24.2-6.8-49.7-12-74.4-7.3
							c-24.7,4.7-48.5,21.5-54.8,45.9c-8,30.7,12.9,61.1,34.7,84.1c63.9,67.7,144.5,116.8,224.9,163.5
							c101.7,59,207.7,120.2,324.2,136.4"/>
					</g>
					<g>
						<path class="st9" d="M1110.3,1136.6c-23.6-22.1-44.7-51-66.2-75.2c-43.4-49.1-82.1-102.3-127.8-149.3
							c-54.5-56.2-118.7-103.1-188.8-138c-48.2-24-101.6-42.6-155-35.9c-7,0.9-14.5,2.5-19.1,7.9c-4.9,5.9-4.8,14.8-1.6,21.8
							c3.2,7,8.9,12.5,14.4,17.8c94.6,89.5,200.2,167.4,313.6,231.5c12.5,7.1,25.1,13.9,37.7,20.8c53.9,29.5,107.8,58.9,161.7,88.4
							c9.1,5,18.4,10,28.7,11.2"/>
					</g>
					<g>
						<g>
							<path class="st8" d="M545.5,733.4c38.8,20.7,77.1,42.4,114.7,65.2c37.6,22.8,74.6,46.6,110.9,71.5
								c36.4,25,72.2,50.9,107.2,77.9c36.9,28.4,72.8,58.1,108.8,87.7c37,30.3,73.9,60.6,110.9,90.9c4.5,3.7,9.1,7.4,13.6,11.2
								c2.2,1.8-0.5,5.2-2.6,3.4c-36.8-30.2-73.6-60.3-110.4-90.5c-36.4-29.8-72.6-59.9-109.6-88.9c-34.5-27-69.8-53-105.7-78
								c-36.1-25.1-72.9-49.3-110.4-72.3c-37.6-23.2-75.8-45.3-114.7-66.3c-4.8-2.6-9.6-5.2-14.4-7.7
								C541.4,736.1,543,732.1,545.5,733.4L545.5,733.4z"/>
						</g>
						<g>
							<path class="st8" d="M849,926.1c-9.7-36.2-24.6-71-44.3-102.9c-5.6-9-11.6-17.8-17.9-26.3c-1.7-2.2,1.8-4.9,3.4-2.6
								c22.4,30.3,40.4,63.9,53.2,99.3c3.6,10.2,6.8,20.5,9.6,30.9C853.7,927.1,849.7,928.7,849,926.1L849,926.1z"/>
						</g>
						<g>
							<path class="st8" d="M759.2,867.9c-33.7,4.4-68.2,3.5-101.6-2.8c-9.4-1.8-18.7-4-28-6.6c-2.7-0.7-1-4.7,1.7-4
								c32.2,9,65.9,12.9,99.3,11.5c9.4-0.4,18.8-1.2,28.1-2.4C761.5,863.3,762,867.6,759.2,867.9L759.2,867.9z"/>
						</g>
						<g>
							<path class="st8" d="M660.3,803.6c-11-25.7-28.3-48.3-50.1-65.6c-2.2-1.7,0.5-5.2,2.6-3.4c22.5,17.8,40.2,41.1,51.5,67.4
								C665.4,804.6,661.4,806.2,660.3,803.6L660.3,803.6z"/>
						</g>
						<g>
							<path class="st8" d="M949.7,1009.2c-15.3,5.1-31.4,6.1-47.4,5.2c-16-0.9-32.2-3.2-48.1-6.1c-8.8-1.6-17.5-3.9-25.6-7.9
								c-2.5-1.2-0.8-5.2,1.7-4c9,4.4,18.8,6.7,28.6,8.3c9.7,1.6,19.4,2.9,29.1,4.1c20,2.3,40.7,2.9,60-3.6
								C950.7,1004.3,952.3,1008.3,949.7,1009.2L949.7,1009.2z"/>
						</g>
						<g>
							<path class="st8" d="M1021,1068.4c-10.5-35.3-27.1-68.6-48.9-98.4c-1.6-2.2,1.8-4.9,3.4-2.6c22,30,38.8,63.7,49.5,99.4
								C1025.8,1069.4,1021.8,1071,1021,1068.4L1021,1068.4z"/>
						</g>
					</g>
				</g>
			</g>
			<g>
				<path class="st10" d="M1738.1,18.5c-101.7,0-184.1,82.4-184.1,184.1c0,41.2,13.6,79.3,36.4,110l-42.4,60.1l81-21.7
					c30.5,22.5,68.2,35.8,109,35.8c101.7,0,184.1-82.4,184.1-184.1S1839.7,18.5,1738.1,18.5z"/>
				<g class="st11">
					<g>
						<path class="st12" d="M1852.8,145.5c-7.5,0-15,0-22.5,0c-18,0-36.1,0-54.1,0c-21.7,0-43.4,0-65.2,0c-18.8,0-37.5,0-56.3,0
							c-6.2,0-12.4,0-18.6,0c-2.9,0-5.9,0.2-8.8,0c-0.1,0-0.3,0-0.4,0c-2.5,0-2.5-3.8,0-3.8c7.5,0,15,0,22.5,0c18,0,36.1,0,54.1,0
							c21.7,0,43.4,0,65.2,0c18.8,0,37.5,0,56.3,0c6.2,0,12.4,0,18.6,0c2.9,0,5.9-0.2,8.8,0c0.1,0,0.3,0,0.4,0
							C1855.2,141.7,1855.2,145.5,1852.8,145.5L1852.8,145.5z"/>
					</g>
					<g>
						<path class="st12" d="M1852.8,179.8c-13.4,0-26.8,0-40.2,0c-21.3,0-42.6,0-64,0c-4.9,0-9.7,0-14.6,0c-2.5,0-2.5-3.8,0-3.8
							c13.4,0,26.8,0,40.2,0c21.3,0,42.6,0,64,0c4.9,0,9.7,0,14.6,0C1855.2,176,1855.2,179.8,1852.8,179.8L1852.8,179.8z"/>
					</g>
					<g>
						<path class="st12" d="M1852.8,214.1c-18.3,0-36.5,0-54.8,0c-29.1,0-58.2,0-87.3,0c-6.7,0-13.3,0-20,0c-2.5,0-2.5-3.8,0-3.8
							c18.3,0,36.5,0,54.8,0c29.1,0,58.2,0,87.3,0c6.7,0,13.3,0,20,0C1855.2,210.3,1855.2,214.1,1852.8,214.1L1852.8,214.1z"/>
					</g>
					<g>
						<path class="st12" d="M1852.8,248.4c-7.5,0-15,0-22.5,0c-18,0-36.1,0-54.1,0c-21.7,0-43.4,0-65.2,0c-18.8,0-37.5,0-56.3,0
							c-6.2,0-12.4,0-18.6,0c-2.9,0-5.9,0.2-8.8,0c-0.1,0-0.3,0-0.4,0c-2.5,0-2.5-3.8,0-3.8c7.5,0,15,0,22.5,0c18,0,36.1,0,54.1,0
							c21.7,0,43.4,0,65.2,0c18.8,0,37.5,0,56.3,0c6.2,0,12.4,0,18.6,0c2.9,0,5.9-0.2,8.8,0c0.1,0,0.3,0,0.4,0
							C1855.2,244.6,1855.2,248.4,1852.8,248.4L1852.8,248.4z"/>
					</g>
					<g>
						<path class="st12" d="M1852.8,282.7c-7.5,0-15,0-22.5,0c-18,0-36.1,0-54.1,0c-21.7,0-43.4,0-65.2,0c-18.8,0-37.5,0-56.3,0
							c-6.2,0-12.4,0-18.6,0c-2.9,0-5.9,0.2-8.8,0c-0.1,0-0.3,0-0.4,0c-2.5,0-2.5-3.8,0-3.8c7.5,0,15,0,22.5,0c18,0,36.1,0,54.1,0
							c21.7,0,43.4,0,65.2,0c18.8,0,37.5,0,56.3,0c6.2,0,12.4,0,18.6,0c2.9,0,5.9-0.2,8.8,0c0.1,0,0.3,0,0.4,0
							C1855.2,278.9,1855.2,282.7,1852.8,282.7L1852.8,282.7z"/>
					</g>
				</g>
			</g>
			<g>
				<path class="st10" d="M1165.4,12.8c-71.6,32.5-103.2,116.8-70.7,188.4c13.2,29,34.9,51.5,60.8,65.7l-10.6,55.8l50.1-41.2
					c28.7,6.1,59.4,3.4,88.2-9.7c71.6-32.5,103.2-116.8,70.7-188.4C1321.3,11.9,1237-19.7,1165.4,12.8z"/>
				<g class="st11">
					<path class="st12" d="M1216.2,147.1l-0.2-0.5l-0.1-0.2c-0.9-2.2,0.2-4.6,2.2-5.5c15.8-6.8,22.9-24.9,16.2-40.5
						c-6.8-15.9-24.7-22.9-40.5-16.4c-10.6,4.5-17.2,13.9-18.4,24.7c-0.3,2.1-2.4,4-4.8,3.6c-2.5-0.3-4-2.4-3.6-4.8
						c1.5-13.6,10-25.7,23.4-31.5c19.9-8.6,43.2,0.7,51.8,20.9c7.9,18.4,0.4,39.9-16.8,49.7l7.7,17.9c0.9,2.2-0.2,4.6-2.4,5.6
						c-2,0.9-4.6,0-5.5-2.2L1216.2,147.1z M1233.5,187.7c-0.9-2.2,0.1-4.8,2.1-5.7c2.2-0.9,4.8,0.1,5.7,2.3l1.6,3.7
						c0.9,2.2-0.2,4.6-2.4,5.6c-2,0.9-4.6,0-5.5-2.2L1233.5,187.7z"/>
				</g>
			</g>
			<g>
				<path class="st12" d="M1111.9,1031.3c106.8-0.2,213.6-0.4,320.5-0.5c17.2,0,35.1,0.1,50.5,7.5c31.4,15.1,41.3,53.8,45.8,87.9
					c16.4,123.5,8.1,248.7-0.2,372.9h-507.6"/>
			</g>
			<g>
				<path class="st13" d="M1255.5,776.6c-14.1,30.3-33.6,68.6-38.1,101.6c-4.5,33.1,7.2,61.8,29.3,86.8
					c-39.5,33.8-95.5,47.3-146.1,35.2c-3.1-0.7-6.7-2-7.8-5c-1-2.9,0.7-5.9,2.3-8.5c17.1-28.2,17.7-71,8.8-102.8"/>
			</g>
			<g>
				<g>
					<g>
						<g>
							<path class="st14" d="M304.3,1364.7L284,1495.9c-0.3,1.9-1.9,3.2-3.8,3.2h-83.5c-1.9,0-3.5-1.4-3.8-3.2L173,1365
								c-0.9-6.1,3.8-11.7,10-11.7h111.5C300.6,1353.3,305.3,1358.7,304.3,1364.7z"/>
						</g>
						<g>
							<path class="st14" d="M179.5,1456.2c4.8,0,9.7-0.5,14.9-1.4l-2-10.8c-17.2,3.2-31.9,0.2-39.3-8c-4.3-4.7-5.5-10.6-3.6-17.1
								c4-13.4,30.5-13.3,40.4-12.1l1.3-10.9c-1.8-0.2-44.8-5.1-52.2,19.9c-3,10-0.8,20,6,27.5
								C152.5,1451.7,164.9,1456.2,179.5,1456.2z"/>
						</g>
					</g>
					<path class="st15" d="M289.9,1456.1l-6.2,39.8c-0.3,1.9-1.9,3.2-3.8,3.2h-83.5c-1.9,0-3.5-1.4-3.8-3.2l-14.3-94.1
						C211.2,1417.7,264.3,1443.4,289.9,1456.1z"/>
				</g>
				<g class="st16">
					<path class="st3" d="M241.2,1323.3c9.5-12.9,11.3-30.9,4.6-45.4c-3.8-8.3-10.1-15.2-14.1-23.4c-5.6-11.5-6.4-24.7-4.9-37.4
						c-10.7,11.5-14.4,29.1-9.2,43.9c1.9,5.3,4.7,10.1,6.5,15.4s2.3,11.4-0.3,16.3c-5.1-8-11.2-15.3-18-21.9c-0.7,7.8,0,15.7,2,23.3
						c0.9,3.5,2.1,7,4.2,10c2,2.9,4.8,5.1,7.1,7.8c6.1,7.3,8.2,17.8,5.2,26.8C230.3,1336.5,237.7,1329.1,241.2,1323.3"/>
				</g>
			</g>
			<path class="st17" d="M22.4,1543.9h1863.2c12.4,0,22.4-10,22.4-22.4v0c0-12.4-10-22.4-22.4-22.4H22.4c-12.4,0-22.4,10-22.4,22.4
				v0C0,1533.9,10,1543.9,22.4,1543.9z"/>
			<g>
				<path class="st10" d="M776.1,202.6c78.6,0,142.3,63.7,142.3,142.3c0,31.9-10.5,61.3-28.2,85l32.7,46.4l-62.6-16.8
					c-23.6,17.4-52.7,27.7-84.3,27.7c-78.6,0-142.3-63.7-142.3-142.3S697.5,202.6,776.1,202.6z"/>
				<path class="st18" d="M731.6,305.8c1.9-62.4,30.1-64.6,48.1-57.8c18.2,6.9,21.1,25.5,9.5,50.1c-6.6,14.1-24.6,15.2-38.8,13.6
					c-1.8,19.1-2.2,47.9,6.6,75.9c12.9-5.3,30.9-9.7,39.9,2.2c14.9,19.6,15.5,37.4,0.1,48.1c-12.4,8.6-31.9,13.4-45.6-15.3
					C727.5,381.2,728.4,332.9,731.6,305.8z"/>
			</g>
			<g>
				<g>
					<path class="st19" d="M547.6,1452.8c16.5-23.2,76.5-15.6,89.7-14.1c13.2,1.5,54.2-6.1,54.2-6.1l0,0c1-0.4,22.8,0.3,23.8,0.2
						c125.4-14.6,197.9-52.3,307.9-30.9l78.9,58c-123.4,36.7-253,28.2-380.3,18.6c-19.6,0.4-166.5,3-174.1,0
						C539.4,1475.2,531.2,1476.1,547.6,1452.8z"/>
					<g>
						<path class="st20" d="M1033.1,983.5c-25.9,1.9-48.7,18.6-65.7,38.2c-41.6,48.1-55.5,113.3-72.6,174.5
							c-17.2,61.2-42.5,125.7-96.6,159.1c-5.7,3.5-11.9,7-14.8,12.9c-4.6,9.3,0.7,20.3,5.9,29.3c16.5,28.6,35.1,59.1,65.8,71.3
							c46.2,18.3,96.9-13.1,131.9-48.4c37.3-37.8,68.8-83.3,80.5-135.1c7.2-32,6.6-65.3,5.2-98.1c-1.8-41.6-4.8-83.1-9-124.6"/>
					</g>
					<g>
						<path class="st21" d="M1056.1,1078.4c-25.8,2.9-47.9,18.5-64.1,36.4c-39.5,43.9-50.7,101.4-65.3,155.5
							c-14.6,54.2-37.3,111.6-89.9,143.3c-5.5,3.3-11.6,6.6-14.3,12c-4.2,8.4,1.5,17.7,7.1,25.3c17.6,24.1,36.7,21.5,67.9,30.7
							c46.9,13.8,97.1,12.4,130.5-20.1c35.7-34.7,65.3-75.8,74.8-121.6c5.9-28.3,3.9-57.2,1.2-85.8c-3.5-36.2-8.2-72.3-14.1-108.2"
							/>
					</g>
					<g>
						<path class="st22" d="M1227.7,937.5c-10.4,13.2-29.7,21.3-45.8,25.8c-33.9,9.5-45.7,1.9-74-13.8c-19.7,13.1-44,21.4-66.8,27.7
							c-5,1.4-10.3,2.7-14.5,5.8c-5.2,3.8-9.8,9.4-11,15.7c-19.4,100.3-24.3,142.9-42.7,219.2c-7.6,31.6,6.9,91.4,11.7,123.5
							c4.5,29.9-19.6,81.7-19.6,112c81.1,0,170.2-31,251.3-31c3.4,0,6.8,0,9.9-1.5c5.2-2.5,7.7-8.3,9.8-13.7
							c9.3-23.9,18.6-47.7,27.9-71.6c14-35.8,28.1-72.1,33.1-110.3c3-23,2.7-46.2,5.1-69.2c5.2-48.8,22.6-95.2,36.7-142.2
							c2.3-7.7,4.5-15.8,2.7-23.7c-3.1-13.6-13.6-15.4-26.2-21.6C1288.1,955.1,1254.8,951,1227.7,937.5"/>
					</g>
					<path class="st13" d="M781.9,1465.1c16.5-23.2,76.5-15.6,89.7-14.1c13.2,1.5,54.2-6.1,54.2-6.1l0,0c1-0.4,22.8,0.3,23.8,0.2
						c125.4-14.6,197.9-52.3,307.9-30.9l95.1,78.9c-130.6,12.1-269.3,7.3-396.5-2.3c-19.6,0.4-166.5,3-174.1,0
						C773.6,1487.4,765.4,1488.3,781.9,1465.1z"/>
					<g>
						<g>
							<path class="st21" d="M1269.1,1252.5c-33.7,14.9-70,30.2-107.8,26.6c-11.1-1.1-22-3.8-33.1-4c-20.9-0.4-40.7,7.9-61.6,9.6
								c-28.4,2.3-56-7.7-82.1-17.4c2.1,34,35.5,64.8,75.5,69.5c23.8,2.8,48-2.7,72-1c23.2,1.7,44.9,10,67.1,16.1
								c22.1,6.1,46.7,10.1,68.4,3c23.5-7.6,39.9-28.2,40.4-49.5s-14.3-42-36.3-52.3"/>
						</g>
						<path class="st21" d="M1153,967.8l28.3,57.8l78-76.1l-32.4-13.6C1226.9,935.8,1199.3,964.1,1153,967.8z"/>
						<path class="st21" d="M1151,967.6l-29.8,52l-41.9-55.1c0,0,23.4-8.5,28.8-16L1151,967.6z"/>
						<circle class="st23" cx="1148.3" cy="1012.3" r="7.3"/>
						<circle class="st23" cx="1136" cy="1065.1" r="7.3"/>
						<circle class="st23" cx="1118" cy="1128" r="7.3"/>
						<circle class="st23" cx="1110.7" cy="1181.9" r="7.3"/>
						<circle class="st23" cx="1103.4" cy="1245.2" r="7.3"/>
						<circle class="st23" cx="1099.4" cy="1311" r="7.3"/>
						<circle class="st23" cx="1099.4" cy="1377.5" r="7.3"/>
					</g>
					<g>
						<path class="st21" d="M1336.7,982.3c-42.1,26.1-50.7,103.8-57.2,152.9c-6.4,49.1-14.7,69.2-14.6,118.8s-6.7,101.5-35.5,141.8
							c-2.2,3.1-4.7,6.7-3.8,10.4c0.5,2,1.8,3.7,3.1,5.2c27.4,32.4,58.3,61.8,92.1,87.5c6.1,4.7,13,9.4,20.7,9.1
							c9.5-0.4,27.6-5.8,35.3-11.2c45.1-31.7,73-73.3,75.5-145.8c0.8-23.5-3.6-100.9-6.7-124.2c-9.1-68.5-20.1-138.5-53.5-198.9
							C1380.1,1006,1361.7,983.6,1336.7,982.3"/>
					</g>
					<g class="st24">
						<path class="st22" d="M1261.1,1290c4.9-0.1,11.6-0.6,17.1-3.5c8.1-4.4,16.3-8.8,25.2-11.4c13.3-3.8,27.9-3.2,40.8,1.7
							c6.5,2.5,12.7,6.1,16.8,11.7c4.1,5.6,5.7,13.3,2.7,19.6c-2.9,6.1-9.5,9.7-16.1,10.8c-6.6,1.1-13.4,0-20-1
							c-22.2-3.6-44.5-7.2-66.7-10.7c14.4,8,31.3,10.3,46.5,16.7s30,19,30.4,35.5c0.1,5-1.5,10.4-5.6,13.1c-1.9,1.3-4.2,1.8-6.5,2.1
							c-13.2,1.5-25.6-6.5-35.5-15.4c-9.8-9-18.7-19.5-30.8-25.1c-2.4-1.1-5-2.2-6.1-4.5c-1-2-0.5-4.5,0.1-6.7
							C1255.9,1311.9,1258.5,1301,1261.1,1290"/>
					</g>
				</g>
				<g>
					<circle class="st25" cx="1052" cy="752.6" r="58.7"/>
					<g>
						<path class="st19" d="M1237.8,816c-16.2,32.7-42,60.7-77.9,66.8c-10,1.7-29.5,7.2-41.3,6c-5-0.5-16,0.8-16.4-4.3
							c-0.2-2.3,6-4.5,7.1-6.6c2.9-5.5,4.9-11.4,8.8-16.2c30.1-37.7,68.3-68.8,111.3-90.8"/>
					</g>
					<g>
						<path class="st13" d="M1229.8,795.9c4.4-7,8.5-12.4,13.2-19.1c8.4-11.9,15.3-14.1,23.7-14.4c9.3-0.3,16.1,12.1,15.1,23.9
							c-1,11.8-7.9,22.2-16,28.7c-10.4,8.3-35.5,18.2-43.2,6.3"/>
					</g>
					<g>
						<g>
							<path class="st13" d="M1131.4,611.3c-24.1-11-53.9,2.7-69.2,24.3s-21.9,55.2-19.3,81.2c3.3,33.3-6.8,47.2-3.3,78.1
								c2.4,22.1,10.6,38.8,24.5,60.3c5.8,9,11.9,29,30.2,33.2c11.9,2.7,33.1-8.6,44.6-12.8c34.1-12.4,62.9-28.1,79.8-60.2
								c16.9-32.1,19.7-71.9,4.7-104.9"/>
						</g>
						<g>
							<path class="st19" d="M1044,690.6c13,16.1,36.1,19.2,56.8,20.1c9.5,0.4,19,0.6,28.5,0c19-1.2,39.7-5.2,55.8,4.9
								c11.9,7.4,18.5,21,22.5,34.4c4.1,13.4,6.4,27.5,12.6,40c6.1-22.1,10.9-44.5,14.5-67.1c3.3-21.4,5.3-43.9-2.3-64.1
								c-4.1-10.9-11-20.7-19.9-28.3c-22.5-19.4-55.1-22.6-84.5-18.3"/>
						</g>
						<g>
							<g>
								<path class="st12" d="M1072.3,718.5c-8.8-9.6-21.6-14.9-34.6-14.4c-2.8,0.1-2.8-4.2,0-4.3c14.1-0.6,28.1,5.2,37.7,15.6
									C1077.2,717.5,1074.1,720.5,1072.3,718.5L1072.3,718.5z"/>
							</g>
							<g>
								<path class="st12" d="M1127.1,714.1c8.8-2.3,18.6-3,27.7-3c8.8,0,17.1,1.9,24.2,7.3c2.2,1.7-0.9,4.7-3.1,3.1
									c-6.6-5.1-14.7-6.2-22.7-6.1c-8.2,0.2-16.9,0.8-24.9,2.9C1125.6,719,1124.4,714.8,1127.1,714.1L1127.1,714.1z"/>
							</g>
							<g>
								<path class="st8" d="M1129.1,816.2c-19.5-2.2-41.3-4.4-60.8-6.6c-0.5-0.1-2.3-0.2-2.5-0.2c0,0,0.6,1.9,0.8,2.7
									c1.9,6,3.7,10.9,7.4,15.9c4.2,5.8,10.6,9.4,17.6,11.1c7.3,1.8,16-1.6,22.1-6C1120.1,828.6,1125.1,823,1129.1,816.2"/>
							</g>
							<g class="st26">
								<path class="st27" d="M1127.5,746.6c9.6,9.7,25.6,11.5,37,4.1c2.1-1.4,4.1,2,2,3.4c-12.9,8.2-31.1,6.1-41.8-4.8
									C1122.9,747.6,1125.7,744.8,1127.5,746.6L1127.5,746.6z"/>
							</g>
							<g class="st26">
								<path class="st27" d="M1079.7,743.8c-10.8,9.2-27.4,8.1-36.5-2.9c-1.6-1.9,1.2-4.8,2.8-2.8c7.7,9.3,21.6,10.9,31,2.9
									C1078.9,739.3,1081.7,742.1,1079.7,743.8L1079.7,743.8z"/>
							</g>
							<g>
								<path class="st19" d="M1099.3,736.2c-4.6,14.9-11.4,34-15.9,48.9c-0.5,1.7-1.1,3.6-0.4,5.3c0.9,2.3,3.7,3.1,6,3.7
									c6,1.4,10.6,0.4,16.1,0.9c2,0.2,3.7-1.5,3.4-3.5C1106.5,776.4,1100.6,748.3,1099.3,736.2"/>
							</g>
							<circle class="st28" cx="1169.7" cy="787.8" r="17"/>
							<ellipse class="st28" cx="1048.9" cy="785.3" rx="10.8" ry="17"/>
						</g>
					</g>
					<g>
						<g>
							<path class="st12" d="M1123.3,502.8c18.4-17.5,44.2-28.2,70.7-35.7c15.1-4.3,31.2-7.7,47.3-5.1c14.2,2.4,27.1,9.3,38.7,17
								c40.9,27.1,71.5,68.7,70.8,111.2c-0.4,26.5-15.4,52.1-38.7,67.9c6.3,29.4,6.3,60.8-6,88.1c-13.9,30.8-42.8,51.9-69.4,72.9
								c6-22.2,2.5-40.2-3.5-62.5c-6-22.2-13.9-44.2-15.6-67.1c-1-13.7,0.6-28,5.7-40.7l-121.2-75
								C1094.5,550.2,1104.9,520.3,1123.3,502.8z"/>
						</g>
						<g>
							<path class="st12" d="M1012.6,762.2c0-31.3,6.2-62.3,14.9-92.3c4.2-28.4,17.6-55.2,37.6-74.2c24.6-23.4,58.8-34.5,91.2-29.6
								c12.9,2,26.1,6.7,35.2,16.7c6.1,6.7,9.9,16.1,10,25.3l22.5-38.3c20.9,9.1,36.4,28.7,42.6,50.6c6.2,21.9,3.4,45.9-5.8,66.7
								c-3.9,8.8-8.8,17.1-12.2,26.1c-5.8,15.5-6.6,32.2-8.9,48.6c-6.1,43-23.3,84.3-49.5,119c20.9-47.8,37.7-101.6,22.6-151.6
								c-6.8-22.5-19.9-43.1-27.4-65.2c-0.4,14.8,1.3,29.7,5.1,43.9c-29.6-1.7-59.2-3.3-88.8-5c-2.5-0.1-5.1-0.3-7.4-1.3
								c-10.1-4.2-10.3-19.4-8.8-31.1c-5.3,9.2-10.7,18.3-16,27.5c-0.9,1.6-1.9,3.2-3.4,4c-1.6,0.9-3.5,0.6-5.3,0.4
								c-6.2-0.8-12.3-1.8-18.5-2.7c-4,9.8-6.3,20.4-8,30.9c-6.9,43-5.2,87.3,4.8,129.7C1020.5,831.4,1012.6,796.5,1012.6,762.2z"/>
						</g>
						<g>
							<path class="st29" d="M1274.7,703.4c-2.8-25.3-18.2-42.8-32.9-56.4c-9.1-8.4-18.5-16.4-28-23.9
								c-21.2-16.7-43.7-31.5-60.5-56.7c-1.6-2.4-3.2-5.4-2.7-8.6c0.7-4.5,4.6-5.5,7.7-5.4c14.4,0.6,28.4,6.5,42.2,12.4
								c18,7.6,35.9,15.2,53.9,22.8c14.5,6.1,30.5,12.1,44.2,2.6c10-7,17-21.8,19.2-37.8c2.1-15.4,0-31.7-4.7-45.8
								c23.2,24.3,38.3,53.7,37.8,83.7c-0.4,26.5-15.4,52.1-38.7,67.9c6.3,29.4,6.3,60.8-6,88.1c-10.3,22.8-28.9,40.3-48.6,56.4
								c0.4-7.6,1.3-15.2,2.8-22.6C1265.7,754.4,1277.6,729.9,1274.7,703.4z"/>
						</g>
						<g>
							<g>
								<path class="st29" d="M1012.6,762.1c0-31.3,6.2-62.3,14.9-92.3c4.2-28.4,17.6-55.2,37.6-74.2c4-3.8,8.3-7.3,12.8-10.4
									c0.3,6.1-2.5,12-5.6,17.2c-9.4,15.5-23.4,29.3-26,47.2c-1,6.9,1.2,15.8,8.1,17.2c4.7,1,9.2-2.1,13.3-4.6
									c9.6-5.9,21.8-9.2,32.1-4.7c9,3.9,14.7,12.8,22,19.4c7.3,6.6,19.2,10.8,26.5,4.2c6-5.4,5.5-14.8,9.5-21.8
									c6.8-12,24.8-12.6,36.7-5.6c11.9,7,19.6,19.1,28.5,29.6c7.9,9.4,18.3,18.1,30.2,19.5c-1.6,3.4-3.2,6.8-4.5,10.3
									c-5.8,15.5-6.6,32.2-8.9,48.6c-6.1,43-23.3,84.3-49.5,119c20.9-47.8,37.7-101.6,22.6-151.6c-6.8-22.5-19.9-43.1-27.4-65.2
									c-0.4,14.8,1.3,29.7,5.1,43.9c-29.6-1.7-59.2-3.3-88.8-5c-2.5-0.1-5.1-0.3-7.4-1.3c-10.1-4.2-10.3-19.4-8.8-31.1
									c-5.3,9.2-10.7,18.3-16,27.5c-0.9,1.6-1.9,3.2-3.4,4c-1.6,0.9-3.5,0.6-5.3,0.4c-6.2-0.8-12.3-1.8-18.5-2.7
									c-4,9.8-6.3,20.4-8,30.9c-6.9,43-5.2,87.3,4.8,129.7C1020.5,831.4,1012.6,796.5,1012.6,762.1z"/>
							</g>
						</g>
					</g>
					<g>
						<g>
							<path class="st29" d="M1160.3,849.1c71.2-12.6,102.9-71.6,103.3-72.3l-4.6-2.4c-0.4,0.7-36.9,68.3-119.6,71.7l0.2,5.2
								C1146.9,851.1,1153.8,850.3,1160.3,849.1z"/>
						</g>
						<ellipse class="st29" cx="1133.7" cy="847.7" rx="12.1" ry="9.5"/>
					</g>
					<g>
						<ellipse class="st14" cx="1254.8" cy="760.5" rx="52.7" ry="58.7"/>
						<g>
							<path class="st25" d="M1013.8,737.6c11.3-133.1,90.9-156.3,97.3-156.5c120-2.7,130.7,127,131.2,132.6l12.7-1.1
								c-0.1-1.5-7.1-151.1-139.2-143.1c-0.9,0-99.4,7.9-109.6,174.5L1013.8,737.6z"/>
						</g>
						<ellipse class="st25" cx="1260.9" cy="760.5" rx="46.7" ry="58.7"/>
						<path class="st30" d="M1224.7,723.6c0,0.9-0.1,1.8-0.1,2.7c0,32.4,20.9,58.7,46.7,58.7c14.6,0,27.7-8.5,36.3-21.8
							c-1.1,31.1-21.5,56-46.5,56c-25.8,0-46.7-26.3-46.7-58.7C1214.3,746.5,1218.2,733.7,1224.7,723.6z"/>
					</g>
				</g>
			</g>
			<g>
				<path class="st25" d="M308,1364.5h606.7c18.2,0,32.9-14.8,32.9-32.9V940.9c0-18.2-14.8-32.9-32.9-32.9H308
					c-18.2,0-32.9,14.8-32.9,32.9v390.6C275,1349.7,289.8,1364.5,308,1364.5z"/>
				<path class="st30" d="M297.9,908c203.4,211.6,552.7,363.6,649.8,403.3v28.8c0,13.4-10.9,24.3-24.3,24.3H299.4
					c-13.4,0-24.3-10.9-24.3-24.3V932.3C275,919.3,285.1,908.8,297.9,908z"/>
				
					<rect x="575.3" y="1139.1" transform="matrix(-1 -4.488200e-11 4.488200e-11 -1 1263.6241 2503.04)" class="st31" width="113" height="224.8"/>
				<path class="st14" d="M516.5,1501.2h128.7c5.3,0,9.7-4,10.2-9.3l32.9-352.9c0.6-6-4.1-11.1-10.2-11.1H547.5
					c-5.3,0-9.7,4-10.2,9.3l-31,352.9C505.8,1496.1,510.5,1501.2,516.5,1501.2z"/>
				<path class="st14" d="M410.7,1501.2h686.9c4.7,0,8.5-3.8,8.5-8.5v-3.2c0-4.7-3.8-8.5-8.5-8.5H410.7c-4.7,0-8.5,3.8-8.5,8.5v3.2
					C402.2,1497.5,406,1501.2,410.7,1501.2z"/>
			</g>
		</g>
	</g>
</g>
<g id="DESIGNED_BY_FREEPIK">
</g>
</svg>
